# Blender 4.1.1
# www.blender.org
mtllib islandStone.mtl
o islandStone
v 0.065276 0.001974 0.095053
v -0.134294 0.092781 0.191409
v -0.333867 0.042037 0.287769
v -0.532187 0.008371 0.383523
v -0.874835 -0.023136 0.548966
v -0.907632 -0.288986 0.564801
v -0.835237 -0.601420 0.529845
v -0.582167 -1.048306 0.407657
v -0.189960 -1.367598 0.218289
v 0.055135 -1.821284 0.099951
v -0.154709 -0.073761 0.068216
v -0.374697 -0.097225 0.041383
v -0.583024 -0.079783 0.015970
v -0.912252 -0.112829 -0.024190
v -0.980787 -0.288643 -0.032551
v -0.932436 -0.604703 -0.026651
v -0.646648 -1.046857 0.008207
v -0.229482 -1.378712 0.059095
v 0.054097 -1.821284 0.093688
v -0.105280 0.006454 -0.046457
v -0.275837 0.033936 -0.187964
v -0.446599 0.022508 -0.329644
v -0.694732 -0.108645 -0.535517
v -0.919103 -0.291544 -0.721674
v -0.728629 -0.621659 -0.563644
v -0.475536 -1.034943 -0.353656
v -0.125803 -1.338682 -0.063485
v 0.056609 -1.821284 0.087860
v -0.001699 0.068157 -0.116204
v -0.068674 -0.076060 -0.327457
v -0.135126 0.005477 -0.537063
v -0.232567 -0.111683 -0.844398
v -0.294154 -0.290388 -1.038664
v -0.233518 -0.594180 -0.847404
v -0.133328 -0.997461 -0.531380
v -0.041671 -1.425553 -0.242279
v 0.061874 -1.821284 0.084314
v 0.123148 0.025067 -0.118878
v 0.181017 0.038188 -0.332805
v 0.239220 0.031157 -0.547975
v 0.342881 0.005902 -0.931183
v 0.368975 -0.290049 -1.027658
v 0.350697 -0.661036 -0.960088
v 0.237800 -1.000376 -0.542732
v 0.171182 -1.468080 -0.296454
v 0.068220 -1.821284 0.084177
v 0.229620 0.001491 -0.053632
v 0.393960 0.002670 -0.202314
v 0.560314 0.043331 -0.352816
v 0.809853 -0.083581 -0.578578
v 0.944993 -0.290348 -0.700841
v 0.768248 -0.568104 -0.540937
v 0.540818 -0.984394 -0.335179
v 0.243036 -1.331629 -0.065770
v 0.073630 -1.821284 0.087496
v 0.283913 -0.019644 0.058821
v 0.053052 0.027503 0.155646
v 0.730128 0.097408 -0.015119
v 1.083043 -0.041800 -0.073601
v 1.138263 -0.289076 -0.082750
v 1.050606 -0.600638 -0.068227
v 0.711512 -0.995724 -0.012035
v 0.343605 -1.366521 0.048929
v 0.076390 -1.821284 0.093212
v 0.268792 -0.093196 0.182778
v 0.472308 -0.037901 0.270503
v 0.666336 -0.067765 0.354135
v 0.986680 -0.084670 0.492222
v 0.985293 -0.287973 0.491624
v 1.023514 -0.629270 0.508100
v 0.652487 -0.982884 0.348167
v 0.399996 -1.434281 0.239331
v 0.075622 -1.821284 0.099511
v 0.189056 -0.027720 0.278878
v 0.312840 0.036541 0.462707
v 0.436999 0.026036 0.647102
v 0.639682 -0.046690 0.948106
v 0.739350 -0.290614 1.096125
v 0.580643 -0.551927 0.860427
v 0.477054 -1.063347 0.706585
v 0.307665 -1.491443 0.455024
v 0.071568 -1.821284 0.104394
v 0.070022 0.110803 0.316617
v 0.074768 -0.001467 0.538184
v 0.079601 0.055032 0.763837
v 0.087749 -0.014866 1.144227
v 0.089190 -0.289454 1.211533
v 0.087050 -0.612080 1.111448
v 0.079132 -0.989097 0.741894
v 0.072909 -1.427553 0.451280
v 0.065518 -1.821284 0.106311
v -0.050518 0.165075 0.284010
v -0.166313 -0.048694 0.472971
v -0.283884 0.049143 0.664825
v -0.479983 -0.023745 0.984827
v -0.507566 -0.289191 1.029838
v -0.477385 -0.626142 0.980590
v -0.286875 -1.011292 0.669705
v -0.098617 -1.392478 0.362503
v 0.059391 -1.821284 0.104657
v 0.249292 -2.102063 0.304883
v 0.140039 -2.056912 0.225792
v 0.270731 -2.017700 0.200397
v 0.233674 -2.126669 0.189078
v -0.029098 -1.864896 -0.148777
v -0.089615 -1.869411 -0.156215
v -0.103295 -1.833911 -0.204138
v -0.041949 -1.828747 -0.197341
v -0.061910 -1.874247 -0.196054
v -0.072414 -1.813060 -0.147729
v 0.109393 -1.575175 0.456606
v 0.017091 -1.606924 0.559694
v -0.018287 -1.609263 0.424807
v 0.057939 -1.681986 0.472088
v 0.077313 -1.569683 0.525333
v -0.041736 -1.593107 0.501192
v 0.044594 -1.566242 0.410710
v 0.118406 -1.652936 0.454149
v 0.040003 -1.675618 0.533070
v 0.022605 -1.659895 0.443420
vn -0.1098 0.5998 -0.7926
vn -0.4712 0.5611 -0.6805
vn -0.3445 0.8406 -0.4180
vn -0.0703 0.9722 -0.2234
vn -0.9911 0.1250 0.0451
vn -0.9644 -0.2367 0.1180
vn -0.8358 -0.5285 0.1491
vn -0.6268 -0.7729 0.0984
vn -0.8263 -0.5092 0.2407
vn -0.3400 0.8331 0.4362
vn -0.1531 0.8395 0.5213
vn 0.0115 0.8659 0.5001
vn -0.5029 0.8625 0.0567
vn -0.8619 0.3533 -0.3638
vn -0.8481 -0.5246 -0.0737
vn -0.7551 -0.5984 -0.2677
vn -0.5723 -0.7648 -0.2958
vn -0.6109 -0.4378 -0.6597
vn -0.2812 0.8867 0.3669
vn -0.6273 0.7213 -0.2935
vn 0.5408 0.8276 0.1505
vn -0.1876 0.9151 -0.3569
vn -0.3709 0.7391 -0.5623
vn -0.3719 -0.5666 -0.7353
vn -0.3599 -0.6292 -0.6889
vn -0.2113 -0.7913 -0.5737
vn -0.8874 -0.4047 -0.2209
vn 0.3240 0.9272 0.1877
vn 0.2498 0.7610 -0.5987
vn -0.3667 0.8219 0.4360
vn -0.0742 0.9394 -0.3346
vn -0.2000 0.2877 -0.9366
vn 0.0143 -0.5307 -0.8475
vn -0.2090 -0.7303 -0.6503
vn -0.0297 -0.5638 -0.8254
vn -0.3066 -0.6549 -0.6907
vn 0.1307 0.9813 0.1413
vn 0.1266 0.9809 0.1478
vn 0.0007 0.9652 0.2616
vn 0.1684 0.9271 -0.3350
vn 0.6112 0.2935 -0.7350
vn 0.3823 -0.6316 -0.6745
vn 0.5751 -0.7040 -0.4168
vn 0.3998 -0.7508 -0.5258
vn 0.9309 -0.3566 -0.0791
vn 0.1185 0.9847 0.1278
vn 0.1117 0.9850 0.1312
vn -0.1533 0.9649 -0.2130
vn 0.3069 0.9036 -0.2990
vn 0.8530 0.2082 -0.4787
vn 0.7534 -0.6143 -0.2343
vn 0.6528 -0.6218 -0.4327
vn 0.6326 -0.6866 -0.3582
vn 0.6145 -0.4214 -0.6670
vn 0.1688 0.8385 0.5181
vn -0.3715 -0.7779 -0.5069
vn 0.0189 0.8969 0.4419
vn 0.3920 0.8126 0.4312
vn 0.9859 -0.0072 0.1674
vn 0.9351 -0.2515 0.2495
vn 0.6907 -0.7231 -0.0035
vn 0.7143 -0.6854 0.1415
vn 0.7676 -0.4973 -0.4043
vn 0.4806 0.8571 -0.1852
vn 0.0135 0.8315 -0.5554
vn 0.2809 0.9502 -0.1350
vn 0.1383 0.9695 -0.2022
vn 0.7954 -0.0072 0.6060
vn 0.6894 -0.6691 0.2776
vn 0.3793 -0.6812 0.6262
vn 0.8079 -0.5191 0.2789
vn 0.7315 -0.6682 0.1360
vn 0.6652 0.6644 -0.3406
vn 0.7647 0.5813 0.2782
vn -0.2247 0.9464 -0.2321
vn 0.1286 0.9802 0.1502
vn 0.3377 0.2258 0.9138
vn 0.1228 -0.7048 0.6987
vn 0.4078 -0.6435 0.6478
vn -0.0290 -0.5520 0.8334
vn -0.1884 -0.6489 0.7372
vn 0.4640 0.7911 -0.3985
vn 0.0787 0.6360 0.7677
vn -0.0437 0.8789 -0.4750
vn -0.0658 0.9809 0.1831
vn -0.2682 0.1881 0.9448
vn -0.2795 -0.2828 0.9176
vn -0.1528 -0.6654 0.7307
vn -0.1077 -0.6555 0.7474
vn -0.4651 -0.5784 0.6701
vn 0.0418 0.7689 -0.6380
vn -0.7645 0.6067 0.2179
vn 0.5480 0.8318 -0.0883
vn -0.2412 0.9678 0.0726
vn -0.7347 0.1303 0.6658
vn -0.7357 -0.2413 0.6328
vn -0.6062 -0.6591 0.4451
vn -0.3701 -0.7662 0.5253
vn -0.7618 -0.5143 0.3938
vn -0.1169 0.7843 0.6093
vn -0.5160 -0.8211 0.2441
vn -0.2395 0.1806 -0.9540
vn 0.9469 -0.3157 -0.0606
vn 0.0542 -0.9860 0.1574
vn -0.6196 -0.7049 -0.3453
vn 0.1163 -0.0790 -0.9901
vn 0.7975 -0.3635 -0.4816
vn -0.1128 -0.1142 0.9870
vn -0.8882 0.2096 0.4088
vn -0.0435 0.9446 -0.3254
vn 0.7432 0.6158 0.2617
vn 0.1446 0.9894 -0.0116
vn -0.2605 0.8477 0.4621
vn -0.2097 0.9737 0.0891
vn -0.5820 0.7408 -0.3354
vn 0.9051 0.0918 0.4152
vn 0.4759 -0.8493 0.2286
vn 0.7232 -0.2066 0.6591
vn 0.5525 -0.1345 0.8226
vn -0.6804 -0.4509 0.5777
vn -0.4965 -0.8663 -0.0556
vn -0.7133 -0.7007 0.0156
vn -0.7569 -0.6465 -0.0956
vn 0.0166 -0.3332 -0.9427
vn 0.1294 -0.7019 -0.7004
vn 0.1294 -0.3539 -0.9263
vn 0.5840 0.0932 -0.8064
vn -0.0336 0.8724 -0.4876
vn 0.1107 0.9629 -0.2462
vn -0.1587 0.9770 -0.1425
vn -0.9275 0.3561 0.1138
vn -0.9744 -0.1459 0.1711
vn -0.8460 -0.5159 0.1347
vn -0.5607 -0.8046 0.1954
vn -0.8387 -0.5265 0.1390
vn -0.2043 0.8851 0.4181
vn -0.2248 0.9549 0.1939
vn -0.0959 0.9949 -0.0326
vn -0.6018 0.7966 -0.0572
vn -0.9262 -0.1482 -0.3468
vn -0.7635 -0.5233 -0.3783
vn -0.2855 -0.8132 -0.5071
vn -0.7807 -0.5265 -0.3365
vn 0.3343 0.9152 -0.2252
vn 0.0005 0.9967 -0.0810
vn -0.1917 0.9358 -0.2960
vn -0.2563 0.8258 -0.5024
vn -0.3940 -0.5447 -0.7403
vn -0.3250 -0.5790 -0.7478
vn -0.8993 -0.3601 -0.2482
vn -0.4297 -0.6390 -0.6380
vn -0.4164 0.9074 -0.0570
vn -0.0698 0.9962 -0.0514
vn -0.2164 0.9686 -0.1224
vn 0.0109 0.7342 -0.6788
vn -0.2050 -0.1656 -0.9646
vn -0.0288 -0.6210 -0.7833
vn -0.3011 -0.4104 -0.8608
vn -0.0166 -0.6390 -0.7690
vn 0.1097 0.9898 0.0904
vn -0.0155 0.9992 -0.0368
vn 0.1965 0.9804 -0.0115
vn 0.3787 0.6418 -0.6668
vn 0.7168 -0.1590 -0.6789
vn 0.4790 -0.5851 -0.6543
vn 0.9602 -0.2244 -0.1664
vn 0.4770 -0.4086 -0.7781
vn -0.2745 -0.9414 -0.1961
vn -0.2584 0.9657 -0.0247
vn 0.2724 0.9355 -0.2248
vn 0.7446 0.6251 -0.2341
vn 0.8223 -0.2551 -0.5087
vn 0.7097 -0.5831 -0.3953
vn 0.3709 -0.7466 -0.5523
vn 0.7818 -0.4962 -0.3776
vn -0.2969 -0.3292 0.8964
vn -0.0331 0.9145 0.4033
vn 0.0187 0.9967 0.0787
vn 0.9465 0.2020 0.2517
vn 0.9921 0.1136 0.0523
vn 0.7608 -0.6321 0.1472
vn 0.8422 -0.3785 -0.3841
vn 0.8618 -0.4962 0.1050
vn 0.0236 0.9387 -0.3440
vn 0.2110 0.9668 -0.1443
vn 0.2201 0.9716 0.0866
vn 0.7906 0.5196 0.3239
vn 0.6304 0.1077 0.7688
vn 0.8838 -0.2896 0.3676
vn 0.8476 -0.4747 0.2370
vn 0.5788 -0.6588 0.4806
vn -0.2135 0.9581 -0.1911
vn 0.0815 0.9967 0.0019
vn 0.1192 0.9770 0.1770
vn 0.1462 0.5562 0.8181
vn 0.4625 -0.2655 0.8459
vn 0.0300 -0.2935 0.9555
vn -0.1392 -0.4602 0.8768
vn 0.2312 -0.6436 0.7296
vn -0.2855 0.8524 0.4380
vn 0.0507 0.9686 -0.2436
vn -0.0664 0.9811 0.1817
vn -0.2836 0.2269 0.9317
vn -0.2191 -0.1603 0.9624
vn -0.0982 -0.6956 0.7117
vn -0.4786 -0.4804 0.7350
vn -0.2164 -0.5604 0.7995
vn -0.0110 0.8940 0.4479
vn -0.1658 0.9862 0.0034
vn -0.0633 0.9963 0.0587
vn -0.7448 0.1861 0.6408
vn -0.7775 -0.1586 0.6086
vn -0.5421 -0.4930 0.6805
vn -0.7055 -0.6221 0.3395
vn -0.6143 -0.5604 0.5555
vt 0.090909 0.069348
vt 0.000000 0.069348
vt 0.045455 0.000000
vt 0.000000 0.138696
vt 0.090909 0.138696
vt 0.000000 0.208045
vt 0.090909 0.321495
vt 0.090909 0.208045
vt 0.000000 0.402068
vt 0.000000 0.321495
vt 0.090909 0.402068
vt 0.000000 0.508775
vt 0.090909 0.672516
vt 0.090909 0.508775
vt 0.090909 0.836258
vt 0.000000 0.672516
vt 0.000000 1.000000
vt 0.000000 0.836258
vt 0.181818 0.069348
vt 0.136364 0.000000
vt 0.181818 0.138696
vt 0.181818 0.321495
vt 0.181818 0.208045
vt 0.181818 0.508775
vt 0.181818 0.402068
vt 0.181818 0.672516
vt 0.181818 1.000000
vt 0.181818 0.836258
vt 0.272727 0.069348
vt 0.227273 0.000000
vt 0.272727 0.138696
vt 0.272727 0.208045
vt 0.272727 0.402068
vt 0.272727 0.321495
vt 0.272727 0.672516
vt 0.272727 0.508775
vt 0.272727 0.836258
vt 0.363636 0.069348
vt 0.318182 0.000000
vt 0.363636 0.138696
vt 0.363636 0.208045
vt 0.363636 0.402068
vt 0.363636 0.321495
vt 0.363636 0.672516
vt 0.363636 0.508775
vt 0.363636 1.000000
vt 0.363636 0.836258
vt 0.454545 0.069348
vt 0.409091 0.000000
vt 0.454545 0.138696
vt 0.454545 0.208045
vt 0.454545 0.321495
vt 0.454545 0.508775
vt 0.454545 0.402068
vt 0.454545 0.836258
vt 0.454545 0.672516
vt 0.545455 0.069348
vt 0.500000 0.000000
vt 0.545455 0.208045
vt 0.545455 0.138696
vt 0.545455 0.321495
vt 0.545455 0.402068
vt 0.545455 0.672516
vt 0.545455 0.508775
vt 0.545455 0.836258
vt 0.454545 1.000000
vt 0.636364 0.069348
vt 0.590909 0.000000
vt 0.636364 0.138696
vt 0.636364 0.208045
vt 0.636364 0.402068
vt 0.636364 0.321495
vt 0.636364 0.672516
vt 0.636364 0.508775
vt 0.636364 1.000000
vt 0.636364 0.836258
vt 0.727273 0.069348
vt 0.681818 0.000000
vt 0.727273 0.208045
vt 0.727273 0.138696
vt 0.727273 0.321495
vt 0.727273 0.508775
vt 0.727273 0.402068
vt 0.727273 0.672516
vt 0.727273 1.000000
vt 0.727273 0.836258
vt 0.818182 0.069348
vt 0.772727 0.000000
vt 0.818182 0.138696
vt 0.818182 0.208045
vt 0.818182 0.402068
vt 0.818182 0.321495
vt 0.818182 0.672516
vt 0.818182 0.508775
vt 0.818182 0.836258
vt 0.909091 0.069348
vt 0.863636 0.000000
vt 0.909091 0.138696
vt 0.909091 0.208045
vt 0.909091 0.321495
vt 0.909091 0.402068
vt 0.909091 0.672516
vt 0.909091 0.508775
vt 0.909091 0.836258
vt 0.818182 1.000000
vt 1.000000 0.069348
vt 0.954545 0.000000
vt 1.000000 0.138696
vt 1.000000 0.208045
vt 1.000000 0.402068
vt 1.000000 0.321495
vt 1.000000 0.508775
vt 1.000000 0.836258
vt 1.000000 0.672516
vt 1.000000 1.000000
vt 1.000000 0.000000
vt 0.500000 1.000000
vt 0.000000 0.000000
vt 0.250000 0.500000
vt 0.750000 0.500000
vt 0.090909 1.000000
vt 0.272727 1.000000
vt 0.545455 1.000000
vt 0.909091 1.000000
s 0
g off
usemtl ground.001
f 11/1/1 2/2/1 1/3/1
f 11/1/2 3/4/2 2/2/2
f 12/5/3 4/6/3 3/4/3
f 14/7/4 4/6/4 13/8/4
f 14/7/5 6/9/5 5/10/5
f 15/11/6 7/12/6 6/9/6
f 17/13/7 7/12/7 16/14/7
f 18/15/8 8/16/8 17/13/8
f 18/15/9 10/17/9 9/18/9
f 20/19/10 11/1/10 1/20/10
f 20/19/11 12/5/11 11/1/11
f 21/21/12 13/8/12 12/5/12
f 23/22/13 13/8/13 22/23/13
f 23/22/14 15/11/14 14/7/14
f 25/24/15 15/11/15 24/25/15
f 26/26/16 16/14/16 25/24/16
f 26/26/17 18/15/17 17/13/17
f 28/27/18 18/15/18 27/28/18
f 29/29/19 20/19/19 1/30/19
f 30/31/20 20/19/20 29/29/20
f 31/32/21 21/21/21 30/31/21
f 31/32/22 23/22/22 22/23/22
f 33/33/23 23/22/23 32/34/23
f 33/33/24 25/24/24 24/25/24
f 35/35/25 25/24/25 34/36/25
f 35/35/26 27/28/26 26/26/26
f 36/37/27 28/27/27 27/28/27
f 38/38/28 29/29/28 1/39/28
f 38/38/29 30/31/29 29/29/29
f 39/40/30 31/32/30 30/31/30
f 40/41/31 32/34/31 31/32/31
f 42/42/32 32/34/32 41/43/32
f 42/42/33 34/36/33 33/33/33
f 44/44/34 34/36/34 43/45/34
f 44/44/35 36/37/35 35/35/35
f 46/46/36 36/37/36 45/47/36
f 47/48/37 38/38/37 1/49/37
f 48/50/38 38/38/38 47/48/38
f 49/51/39 39/40/39 48/50/39
f 50/52/40 40/41/40 49/51/40
f 50/52/41 42/42/41 41/43/41
f 52/53/42 42/42/42 51/54/42
f 52/53/43 44/44/43 43/45/43
f 54/55/44 44/44/44 53/56/44
f 54/55/45 46/46/45 45/47/45
f 56/57/46 47/48/46 1/58/46
f 56/57/47 48/50/47 47/48/47
f 58/59/48 48/50/48 57/60/48
f 59/61/49 49/51/49 58/59/49
f 60/62/50 50/52/50 59/61/50
f 60/62/51 52/53/51 51/54/51
f 62/63/52 52/53/52 61/64/52
f 63/65/53 53/56/53 62/63/53
f 63/65/54 55/66/54 54/55/54
f 65/67/55 56/57/55 1/68/55
f 65/67/56 57/60/56 56/57/56
f 66/69/57 58/59/57 57/60/57
f 67/70/58 59/61/58 58/59/58
f 69/71/59 59/61/59 68/72/59
f 69/71/60 61/64/60 60/62/60
f 71/73/61 61/64/61 70/74/61
f 71/73/62 63/65/62 62/63/62
f 73/75/63 63/65/63 72/76/63
f 74/77/64 65/67/64 1/78/64
f 74/77/65 66/69/65 65/67/65
f 76/79/66 66/69/66 75/80/66
f 76/79/67 68/72/67 67/70/67
f 77/81/68 69/71/68 68/72/68
f 79/82/69 69/71/69 78/83/69
f 79/82/70 71/73/70 70/74/70
f 80/84/71 72/76/71 71/73/71
f 82/85/72 72/76/72 81/86/72
f 83/87/73 74/77/73 1/88/73
f 84/89/74 74/77/74 83/87/74
f 85/90/75 75/80/75 84/89/75
f 85/90/76 77/81/76 76/79/76
f 87/91/77 77/81/77 86/92/77
f 87/91/78 79/82/78 78/83/78
f 89/93/79 79/82/79 88/94/79
f 90/95/80 80/84/80 89/93/80
f 90/95/81 82/85/81 81/86/81
f 92/96/82 83/87/82 1/97/82
f 93/98/83 83/87/83 92/96/83
f 94/99/84 84/89/84 93/98/84
f 95/100/85 85/90/85 94/99/85
f 96/101/86 86/92/86 95/100/86
f 96/101/87 88/94/87 87/91/87
f 98/102/88 88/94/88 97/103/88
f 99/104/89 89/93/89 98/102/89
f 99/104/90 91/105/90 90/95/90
f 2/106/91 92/96/91 1/107/91
f 2/106/92 93/98/92 92/96/92
f 3/108/93 94/99/93 93/98/93
f 4/109/94 95/100/94 94/99/94
f 6/110/95 95/100/95 5/111/95
f 7/112/96 96/101/96 6/110/96
f 7/112/97 98/102/97 97/103/97
f 9/113/98 98/102/98 8/114/98
f 10/115/99 99/104/99 9/113/99
f 103/116/100 102/117/100 101/118/100
f 102/116/101 104/117/101 101/118/101
f 103/116/102 104/117/102 102/118/102
f 101/116/103 104/117/103 103/118/103
f 105/118/104 106/116/104 109/117/104
f 106/118/105 107/116/105 109/117/105
f 107/118/106 108/116/106 109/117/106
f 108/118/107 105/116/107 109/117/107
f 106/115/108 105/17/108 110/58/108
f 107/115/109 106/17/109 110/58/109
f 108/115/110 107/17/110 110/58/110
f 105/115/111 108/17/111 110/58/111
f 117/58/112 115/119/112 111/118/112
f 116/120/113 112/117/113 115/119/113
f 115/119/114 117/58/114 116/120/114
f 113/116/115 116/120/115 117/58/115
f 115/58/116 118/119/116 111/118/116
f 119/120/117 114/117/117 118/119/117
f 118/119/118 115/58/118 119/120/118
f 112/116/119 119/120/119 115/58/119
f 116/58/120 119/119/120 112/118/120
f 120/120/121 114/117/121 119/119/121
f 119/119/122 116/58/122 120/120/122
f 113/116/123 120/120/123 116/58/123
f 117/58/124 120/119/124 113/118/124
f 118/120/125 114/117/125 120/119/125
f 120/119/126 117/58/126 118/120/126
f 111/116/127 118/120/127 117/58/127
f 11/1/128 12/5/128 3/4/128
f 12/5/129 13/8/129 4/6/129
f 14/7/130 5/10/130 4/6/130
f 14/7/131 15/11/131 6/9/131
f 15/11/132 16/14/132 7/12/132
f 17/13/133 8/16/133 7/12/133
f 18/15/134 9/18/134 8/16/134
f 18/15/135 19/121/135 10/17/135
f 20/19/136 21/21/136 12/5/136
f 21/21/137 22/23/137 13/8/137
f 23/22/138 14/7/138 13/8/138
f 23/22/139 24/25/139 15/11/139
f 25/24/140 16/14/140 15/11/140
f 26/26/141 17/13/141 16/14/141
f 26/26/142 27/28/142 18/15/142
f 28/27/143 19/121/143 18/15/143
f 30/31/144 21/21/144 20/19/144
f 31/32/145 22/23/145 21/21/145
f 31/32/146 32/34/146 23/22/146
f 33/33/147 24/25/147 23/22/147
f 33/33/148 34/36/148 25/24/148
f 35/35/149 26/26/149 25/24/149
f 35/35/150 36/37/150 27/28/150
f 36/37/151 37/122/151 28/27/151
f 38/38/152 39/40/152 30/31/152
f 39/40/153 40/41/153 31/32/153
f 40/41/154 41/43/154 32/34/154
f 42/42/155 33/33/155 32/34/155
f 42/42/156 43/45/156 34/36/156
f 44/44/157 35/35/157 34/36/157
f 44/44/158 45/47/158 36/37/158
f 46/46/159 37/122/159 36/37/159
f 48/50/160 39/40/160 38/38/160
f 49/51/161 40/41/161 39/40/161
f 50/52/162 41/43/162 40/41/162
f 50/52/163 51/54/163 42/42/163
f 52/53/164 43/45/164 42/42/164
f 52/53/165 53/56/165 44/44/165
f 54/55/166 45/47/166 44/44/166
f 54/55/167 55/66/167 46/46/167
f 56/57/168 57/60/168 48/50/168
f 58/59/169 49/51/169 48/50/169
f 59/61/170 50/52/170 49/51/170
f 60/62/171 51/54/171 50/52/171
f 60/62/172 61/64/172 52/53/172
f 62/63/173 53/56/173 52/53/173
f 63/65/174 54/55/174 53/56/174
f 63/65/175 64/123/175 55/66/175
f 65/67/176 66/69/176 57/60/176
f 66/69/177 67/70/177 58/59/177
f 67/70/178 68/72/178 59/61/178
f 69/71/179 60/62/179 59/61/179
f 69/71/180 70/74/180 61/64/180
f 71/73/181 62/63/181 61/64/181
f 71/73/182 72/76/182 63/65/182
f 73/75/183 64/123/183 63/65/183
f 74/77/184 75/80/184 66/69/184
f 76/79/185 67/70/185 66/69/185
f 76/79/186 77/81/186 68/72/186
f 77/81/187 78/83/187 69/71/187
f 79/82/188 70/74/188 69/71/188
f 79/82/189 80/84/189 71/73/189
f 80/84/190 81/86/190 72/76/190
f 82/85/191 73/75/191 72/76/191
f 84/89/192 75/80/192 74/77/192
f 85/90/193 76/79/193 75/80/193
f 85/90/194 86/92/194 77/81/194
f 87/91/195 78/83/195 77/81/195
f 87/91/196 88/94/196 79/82/196
f 89/93/197 80/84/197 79/82/197
f 90/95/198 81/86/198 80/84/198
f 90/95/199 91/105/199 82/85/199
f 93/98/200 84/89/200 83/87/200
f 94/99/201 85/90/201 84/89/201
f 95/100/202 86/92/202 85/90/202
f 96/101/203 87/91/203 86/92/203
f 96/101/204 97/103/204 88/94/204
f 98/102/205 89/93/205 88/94/205
f 99/104/206 90/95/206 89/93/206
f 99/104/207 100/124/207 91/105/207
f 2/106/208 3/108/208 93/98/208
f 3/108/209 4/109/209 94/99/209
f 4/109/210 5/111/210 95/100/210
f 6/110/211 96/101/211 95/100/211
f 7/112/212 97/103/212 96/101/212
f 7/112/213 8/114/213 98/102/213
f 9/113/214 99/104/214 98/102/214
f 10/115/215 100/124/215 99/104/215
